<svg xmlns="http://www.w3.org/2000/svg" width="800.01" height="578.598" viewBox="0 0 766 554">
  <defs>
    <style>
      .cls-1 {
        fill-rule: evenodd;
      }
    </style>
  </defs>
  <path id="Color_Fill_2" data-name="Color Fill 2" class="cls-1" d="M726,216s-0.079-11.609-4-17c-4.076-5.6-12-5-12-5L494.324,208s-15.009,1.014-25.324,6c-10.372,5.014-11,12-11,12s-3.774,73.125-6.138,118.922A275.145,275.145,0,0,1,448,380s-1.46,10.919-6,20a164,164,0,0,1-10,17s-10.146,19.717-3,36a31.859,31.859,0,0,0,24,19l41,1s24.3,1.506,40,3a22.959,22.959,0,0,1,13,6.044A149.894,149.894,0,0,0,562,507a114.737,114.737,0,0,0,18,18,136.354,136.354,0,0,0,32,12c19.174,4.4,45,4,45,4s-9.944-3.682-16-11c-5.943-7.181-13-16-13-16a58.04,58.04,0,0,1-7-14c-2.53-7.833-1-17.956-1-17.956A39.727,39.727,0,0,1,630,478a48.355,48.355,0,0,1,11-1s14.456,2.7,27,2a71.808,71.808,0,0,0,25-6,93.5,93.5,0,0,0,18-13,41.589,41.589,0,0,0,12-21ZM506,279a14.063,14.063,0,0,0-7,2c-2.906,1.991-4.676,6-4.676,6v46A34.457,34.457,0,0,0,498,338a16.924,16.924,0,0,0,4,3.143S505.443,344,509,344a16.741,16.741,0,0,0,7-2,40.139,40.139,0,0,0,4-4c1.328-1.606,2-7,2-7a194.342,194.342,0,0,0,2-25,112.827,112.827,0,0,0-2.093-21s-2.863-4.475-6.907-6C511.093,277.526,506,279,506,279Zm115,6s1.933-4.857,6-7a21.561,21.561,0,0,1,8-2,24.687,24.687,0,0,1,10,1c4.971,1.822,7,7,7,7a118.321,118.321,0,0,1,2,20,115.586,115.586,0,0,1-2,20,41.7,41.7,0,0,1-5,11,36.173,36.173,0,0,1-8,8,16.971,16.971,0,0,1-6,3,19.187,19.187,0,0,1-7,0,14.189,14.189,0,0,1-5-3c-1.949-1.949-2-6-2-6a177.268,177.268,0,0,1-1-25A224.788,224.788,0,0,1,621,285ZM529,404a7.415,7.415,0,0,0-4,3,14.5,14.5,0,0,0-2,8s3.8,12.554,12,22c8.3,9.553,21,16,21,16s12.857,1.2,23-3c10.355-4.294,18-14,18-14a29.069,29.069,0,0,0,10-20,13.51,13.51,0,0,0-1-7c-1.434-2.881-5-4-5-4a14.948,14.948,0,0,0-7,2,32.8,32.8,0,0,0-6,5l-14,19a13.98,13.98,0,0,1-6,3,19.608,19.608,0,0,1-7,0,29.321,29.321,0,0,1-7-3,33.374,33.374,0,0,1-6-5,115.314,115.314,0,0,1-6-10c-2.787-5.321-5-11-5-11s-2.253-2-4-2A12.149,12.149,0,0,0,529,404Z"/>
  <path id="Color_Fill_1" data-name="Color Fill 1" class="cls-1" d="M69,16.657S48.851,20.492,36,31C22.961,41.662,17,61,17,61L37,346s4.025,19.9,13,31c9.973,12.335,25,16,25,16l80,2s9.036,1.218,13,4a9.094,9.094,0,0,1,4,7s0.7,19.895-9,33c-11.2,15.133-35,35-35,35s20.226,9.206,40,8c21.178-1.291,42-13,42-13s18.927-13.332,33-30c12.308-14.577,20-32.769,20-32.769A305.819,305.819,0,0,1,311,402c29.421,0,61,1,61,1s20.519-2.737,34-15c11.822-10.753,16.826-28,16.826-28L411,95s-3.61-21.287-16-36c-11.583-13.755-32-21-32-21ZM200,297s-2.288,30.067,9,47c11.7,17.556,38,24,38,24s7.007,1.839,19-2c6.526-2.089,14.988-7.808,21-13,17.11-14.777,16-56,16-56s-18.773,27.279-32,34c-14.107,7.168-23,5-23,5a58.879,58.879,0,0,1-21-11C214.553,314.4,200,297,200,297ZM143.414,137v72s0.146,5.52,2.586,9c2.352,3.354,7,4.673,7,4.673A26.956,26.956,0,0,0,161,224a39.3,39.3,0,0,0,9-1.327A19.276,19.276,0,0,0,176,218a22.487,22.487,0,0,0,3.456-7V139A26.99,26.99,0,0,0,176,131a11.724,11.724,0,0,0-5-3.739A35.321,35.321,0,0,0,160,125a21.82,21.82,0,0,0-9,2.261A14.981,14.981,0,0,0,146,131,15.506,15.506,0,0,0,143.414,137ZM307,127.261A12.314,12.314,0,0,0,302,130a20.612,20.612,0,0,0-3.855,6v76A14.619,14.619,0,0,0,300,218a16.9,16.9,0,0,0,5,4.673A30.893,30.893,0,0,0,316,225a46.594,46.594,0,0,0,13-2.327A19.163,19.163,0,0,0,335,219a17.257,17.257,0,0,0,3.848-6V135A12.561,12.561,0,0,0,336,130a13.512,13.512,0,0,0-5-2.739A85.313,85.313,0,0,0,318,126,51.185,51.185,0,0,0,307,127.261Z"/>
</svg>
