<svg xmlns="http://www.w3.org/2000/svg" width="600.019" height="583.352" viewBox="0 0 576 560">
  <defs>
    <style>
      .cls-1 {
        fill-rule: evenodd;
      }
    </style>
  </defs>
  <path id="Color_Fill_5" data-name="Color Fill 5" class="cls-1" d="M107.553,98.214s-5.447-3-10.756-3c-5.047,0-9.969,3-9.969,3S51.565,121.437,38,131c-3.3,2.325-4,4-4,4a15.234,15.234,0,0,0-.769,4.31V205l1.508,2.146,7.782,11.068V353.522l-7.233,5.043A2.7,2.7,0,0,0,34,360a5.777,5.777,0,0,0-.769,3c0,6.246-1.464,20.7,0,25.921A8.077,8.077,0,0,0,34,391a6.141,6.141,0,0,0,.958,1.589C42.115,403.815,95,445.357,95,445.357A20.313,20.313,0,0,0,102,444a18.844,18.844,0,0,0,5.553-4V400L86.829,371V218.214l20.724-26.428V98.214ZM59,296v32l13,17,1-41L59,291v5Zm27.829,75V218.214M71,191.786,457.009,99.331S462.458,96.162,467.77,96c5.048-.157,9.972,2.689,9.972,2.689s35.279,22.117,48.849,31.255c3.3,2.221,4,3.874,4,3.874a14.953,14.953,0,0,1,.77,4.285v65.673s-0.607.88-1.509,2.192c-2.633,3.823-7.785,11.308-7.785,11.308V352.543l7.235,4.817a2.584,2.584,0,0,1,1.289,1.394,5.629,5.629,0,0,1,.77,2.98c0,6.245,1.464,20.651,0,25.914a8.334,8.334,0,0,1-.77,2.1,6.358,6.358,0,0,1-.958,1.618c-7.16,11.446-60.067,54.626-60.067,54.626a20.047,20.047,0,0,1-7-1.139,18.046,18.046,0,0,1-5.556-3.826V401.036L477.742,371.4V218.653l-20.733-25.776V99.331ZM506,294l-16,13,1,34,17-11Zm117-45"/>
  <path id="Color_Fill_6" data-name="Color Fill 6" class="cls-1" d="M213,477L95,408l-6,12,126,75Zm256-70L344,474l3,12,128-66ZM98,169l118,68,6-23L99,149Zm254,65,116-67-5-19L340,217Zm-53,34M104,124L214,63l11,2,18-14h77l16,13.93L348,62l123,70-11-23L351,50.9,345,36a58,58,0,0,1-16-5c-7.065-3.6-12.725-9.747-24-12-6.748-1.348-15.879-.968-23-1s-15.217-.263-22,1c-8.78,1.634-14.34,7.265-21,10a118.505,118.505,0,0,1-21,6.422l-4.189,7.207L209,50.9,93,115Z"/>
  <path id="Color_Fill_7" data-name="Color Fill 7" class="cls-1" d="M141,309l-22,34,16,11,13-19Zm-3,56-4,7,37,29-5-20-25-19Zm28-40,19,54-17-4-10-32Zm24-27"/>
  <path id="Color_Fill_4" data-name="Color Fill 4" class="cls-1" d="M312,209.338H245l-12-13.2H221.792l-15.616,13.2v55.82l15.616,26.41V429.753L206.176,447.16v52.218L265,543.794h31l62.734-44.416V447.16l-16.216-17.407V291.568l16.216-26.41v-55.82l-16.216-13.2H335m-97,233.62S259.6,414,281,414c21.1,0,42,15.753,42,15.753v-43.01S301.973,373,281,373c-21.52,0-43,13.743-43,13.743v43.01Z"/>
  <path id="Color_Fill_2" data-name="Color Fill 2" class="cls-1" d="M405,323l6,17-9,26-19,16Zm19-10-4,20,7,16,16-3Zm-1,50,11,11-37,23,7-23Z"/>
</svg>
