<svg xmlns="http://www.w3.org/2000/svg" width="539" height="539" viewBox="0 0 539 539">
  <defs>
    <style>
      .cls-1 {
        fill-rule: evenodd;
      }
    </style>
  </defs>
  <path id="Color_Fill_1" data-name="Color Fill 1" class="cls-1" d="M213,291L49,290s-9.586,2.094-15,8c-5.583,6.091-7,16-7,16V483s1.886,9.631,8,16c5.882,6.127,16,9,16,9l417,1s13.091-1.366,21-8c7.584-6.36,10-18,10-18V311s-0.007-9.257-5-14-15-5-15-5H307l-2,137-88-1ZM36,253s-5.174-1.917-8-5a13.122,13.122,0,0,1-3-7V163s1.264-4.538,4-7c2.207-1.986,6-2,6-2l453-2s4.492-.006,7,2c2.492,1.994,3,6,3,6l1,81s0.15,6.365-3,10c-3.344,3.859-10,5-10,5ZM120,58s28.862,12.516,50,30c19.277,15.945,31,37,31,37s9.7-5.245,20-5c10.69,0.255,22,6,22,6a61.787,61.787,0,0,0,5-21c0.5-11.621-3-25-3-25L230.019,49.522,216,21,121,57Zm231,68-49-3s-5.239-16.511-6-33c-0.739-16,3-32,3-32s5.691-17.105,16-29c9.118-10.521,23-16,23-16l75,47Z"/>
</svg>
