<svg xmlns="http://www.w3.org/2000/svg" width="415" height="415" viewBox="0 0 415 415">
  <defs>
    <style>
      .cls-1 {
        fill-rule: evenodd;
      }
    </style>
  </defs>
  <path id="Color_Fill_6" data-name="Color Fill 6" class="cls-1" d="M238.51,116.254s37.269,8.758,53.429,32.716c16.273,24.126,11.437,63.453,11.437,63.453s-7.529,8.248-13,7.558c-5.066-.638-8.1-10.218-8.1-10.218s2.18-28.957-10.241-47.372c-12.181-18.059-38.968-25.583-38.968-25.583s-8.707-9.023-7.289-14.383C227.079,117.529,238.51,116.254,238.51,116.254Z"/>
  <path id="Color_Fill_7" data-name="Color Fill 7" class="cls-1" d="M348.128,230.486s11.589-65.954-15.277-106.7C307.17,84.841,242.98,71.021,242.98,71.021s-11.936,2.718-14.094,9.506c-2.458,7.736,4.822,19.666,4.822,19.666s52.684,10.152,73.443,40.928c21.449,31.8,11,84.256,11,84.256s5.05,10.533,12.822,11.857C338.165,238.461,348.128,230.486,348.128,230.486ZM357.01,129.2"/>
  <path id="Color_Fill_8" data-name="Color Fill 8" class="cls-1" d="M272.689,25.652S339.3,47.51,370.967,94.459c31.521,46.732,28.1,118.555,28.1,118.555S391.127,227,383.334,227.245c-8.144.256-16.158-13.226-16.158-13.226s5.677-57.751-21.33-97.791C317.792,74.638,257.015,50.7,257.015,50.7s-6.893-13.1-2.6-19.955C257.869,25.217,272.689,25.652,272.689,25.652Z"/>
  <path id="Color_Fill_1" data-name="Color Fill 1" class="cls-1" d="M134.17,340.518a4.646,4.646,0,0,0-2,2,13.406,13.406,0,0,0-1,4l35,49a2.783,2.783,0,0,0,2,1,7.642,7.642,0,0,0,3-1l29-17a3.557,3.557,0,0,0,1-2,17.677,17.677,0,0,0,0-4l-27-43a19.4,19.4,0,0,0-3-2,11.3,11.3,0,0,0-3-1Z"/>
  <path id="Color_Fill_2" data-name="Color Fill 2" class="cls-1" d="M125.17,174.518l85,122,3.2,1.6,2.8,1.4,100-1a18.339,18.339,0,0,0,6-4,15.047,15.047,0,0,0,3-6l-152-222s-4.151-2.722-8-2c-4.14.776-8,5-8,5l-34,97a9.484,9.484,0,0,0,0,4A13.083,13.083,0,0,0,125.17,174.518Z"/>
  <path id="Color_Fill_3" data-name="Color Fill 3" class="cls-1" d="M111.17,190.518l-89,83a20.428,20.428,0,0,0-4,8,16.482,16.482,0,0,0,1,8l48,63a21.608,21.608,0,0,0,7,2,19.7,19.7,0,0,0,7-1l112-56Zm-45,107"/>
  <path id="Color_Fill_4" data-name="Color Fill 4" class="cls-1" d="M14.17,308.518s-7.8,19.738-1,28c7.186,8.725,29,6,29,6Zm58-176"/>
</svg>
