<svg xmlns="http://www.w3.org/2000/svg" width="677" height="484" viewBox="0 0 677 484">
  <defs>
    <style>
      .cls-1, .cls-2 {
        fill-rule: evenodd;
      }

      .cls-2 {
        opacity: 0.6;
      }
    </style>
  </defs>
  <path id="Color_Fill_3" data-name="Color Fill 3" class="cls-1" d="M50,17S37.3,20.757,31,29c-6.685,8.742-7,22-7,22l1,62L324,255s7.684,4,15,4c7.675,0,15-4,15-4L661,116l2-65s-0.277-14.037-7-23c-6.777-9.036-20-13-20-13ZM250,261L53,457a7.262,7.262,0,0,0-1,4,8.836,8.836,0,0,0,2,4l574,1s3.671-.449,5-2c1.638-1.911,1-5,1-5L435,261s-48.685,30-96,30C293.867,291,250,261,250,261Z"/>
  <path id="Color_Fill_2" data-name="Color Fill 2" class="cls-2" d="M24,155V440a5.463,5.463,0,0,0,1,3,4.553,4.553,0,0,0,3,1L229,256Zm639,0L454,254,657,445s4.514,0.477,6-2a10.385,10.385,0,0,0,1-6Z"/>
</svg>
