<svg xmlns="http://www.w3.org/2000/svg" width="607" height="607" viewBox="0 0 607 607">
  <defs>
    <style>
      .cls-1 {
        fill-rule: evenodd;
      }
    </style>
  </defs>
  <path id="Color_Fill_1" data-name="Color Fill 1" class="cls-1" d="M-65-237L-8-5S0.309,8.752,9,9C17.808,9.252,27-4,27-4L83-236,16-277Z"/>
  <path id="Color_Fill_2" data-name="Color Fill 2" class="cls-1" d="M0,31L-43,73s-3,3.59-3,7c0,3.586,3,7,3,7l42,47s3.192,3,6,3c2.689,0,5-3,5-3L52.836,87.2S56,83.718,56,80c0-3.3-3.164-6.9-3.164-6.9L10.924,31S7.707,28,5,28C2.246,28,0,31,0,31Z"/>
  <path id="Color_Fill_3" data-name="Color Fill 3" class="cls-1" d="M-107,55l-128,72s-9,8.762-9,17c0,8.747,9,17,9,17L-10,295s9.348,5,18,5c8.343,0,16-5,16-5L252,162s8-8.979,8-18c0-7.906-8-16-8-16L121,56s-9.14-3.621-12-1c-3.128,2.867,0,12,0,12l111,88L115,112,7,183-96,114l-99,45,99-93s3.044-7.956,0-11C-98.371,52.629-107,55-107,55Z"/>
</svg>
