<svg xmlns="http://www.w3.org/2000/svg" width="482" height="484" viewBox="0 0 482 484">
  <metadata><?xpacket begin="﻿" id="W5M0MpCehiHzreSzNTczkc9d"?>
<x:xmpmeta xmlns:x="adobe:ns:meta/" x:xmptk="Adobe XMP Core 5.6-c145 79.163499, 2018/08/13-16:40:22        ">
   <rdf:RDF xmlns:rdf="http://www.w3.org/1999/02/22-rdf-syntax-ns#">
      <rdf:Description rdf:about=""
            xmlns:xmp="http://ns.adobe.com/xap/1.0/">
         <xmp:CreatorTool>Adobe Photoshop CC 2019 (Windows)</xmp:CreatorTool>
      </rdf:Description>
   </rdf:RDF>
</x:xmpmeta>
                                                                                                    
                                                                                                    
                                                                                                    
                                                                                                    
                                                                                                    
                                                                                                    
                                                                                                    
                                                                                                    
                                                                                                    
                                                                                                    
                                                                                                    
                                                                                                    
                                                                                                    
                                                                                                    
                                                                                                    
                                                                                                    
                                                                                                    
                                                                                                    
                                                                                                    
                                                                                                    
                           
<?xpacket end="w"?></metadata>
<defs>
    <style>
      .cls-1 {
        fill-rule: evenodd;
      }
    </style>
  </defs>
  <path id="Color_Fill_1" data-name="Color Fill 1" class="cls-1" d="M338,118c-14.348.155-28.8,0.422-41-2-0.961-1.766-1.257-1.68-2-4-0.877-1.3-.894-2.467-1-5,19.906-18.906,38.57-39.57,58-59,8.159-8.159,12.7-19.985,29-20l56,58c7.346,7.346,19.708,12.925,20,27-8.885,5.774-28.152,4.164-43,4-2.065,6.234-1,17.076-1,25v58a35.383,35.383,0,0,1-3,3c-5.825,4.789-9.666-.665-13-4V129c0-9.8-1.779-21.794,4-26,4.928-3.825,19.688-2.152,28-2v-1c-6.516-4.361-11.1-10.943-16-17-6.5-8.02-15.682-14.682-23-22-4.576-4.576-8.663-12.468-16-14-13.385,21.113-38.277,33.379-52,54h12c1.607-.786,9.408-0.1,14,0,1.365,2.02,4.971,3.35,6,5v69c-1.834,1.285-1.712,1.968-4,3-3.527,2.565-8.2.363-10-2C335.163,169.654,337.88,129.957,338,118ZM77,165c-0.2-21.467-2.291-45.956,10-55,10.834-7.972,32.1-6,51-6h86c13.875,0,30.83-1.4,43,1,0.961,1.766,1.257,1.68,2,4,3.36,5.172-2.474,8.5-5,11H137c-14.289,0-38.042-3.774-42,7-2.892,3.842-2,12.3-2,19V313c0,21.36-2.093,47.951,2,66l6,5H296c28.473,0,73.028,3.93,97-2,5.54-9.689,4.81-28.528,4-44-2.087-39.887.395-108.613,1-97,3.618-2.267,10.034-6.92,14-1,2.879,4.3,1,27.641,1,35v78c0,12.9,1.218,27.263-4,35-3.142,4.658-11.056,10.327-17,12l-12,1c-3.186,1.735-5.148,6.349-9,8-10.955,4.7-23.844,3.628-36,7-56.607,15.7-117.986,21.243-175,36-16.826,4.355-32.293,4.554-49,9-7.793,2.074-18.554,5.893-28,3-27.517-8.426-25.147-63.483-33-93-11.5-43.231-16-90.569-27-134-3.909-15.437-9.621-40.2-1-53C30.3,171.675,59.3,167.18,77,165Zm0,17c-11.207.08-39.264,5.9-42,14-3.555,4.547,3.729,40.446,6,49,12.587,47.418,16.969,99.827,29,145,3.7,13.886,4.832,53.059,16,57,4.6,3.616,39.583-3.7,48-6,44.879-12.254,94.264-16.961,139-29,12.462-3.354,24.674-3.944,36-7,6.168-1.664,14.284.049,17-5h-3c-3.868,2.4-19.841,1-27,1H133c-17.125,0-35.066,1.175-45-6-13.732-9.918-11-35.345-11-59V182Zm123,4c12.588,0.122,19.043,8.99,27,14,19.319,12.162,39.078,23.193,58,35,8.137,5.077,21.714,7.18,22,20-0.8,1.021-.355.274-1,2-26.171,15.01-52.082,30.906-78,47-5.555,3.45-19.194,16.708-26,14-10.363-2.125-7-19.086-7-31V223c0-11.078-.9-24.557,1-34A18.068,18.068,0,0,0,200,186Zm11,23v87h1c5.3-4.88,12.737-7.052,19-11,10.47-6.6,21.484-14.447,32-21,6.1-3.8,16.86-6.477,20-13-7.191-1.892-12.406-7.471-18-11-10.648-6.717-21.33-11.372-32-18C226.114,217.722,219.584,211.448,211,209ZM137,361a81.859,81.859,0,0,1-16-1c-0.973-1.455-3.544-3.441-4-5-3.88-13.275,12.687-7.463,19-11,1.85-2.311,2.225-5.538,4-8,8.915-12.365,29.769-15.345,43-5,3.153,2.465,5.859,12.5,8,14H291c1.785-2.963,13.443-.062,19,0h59c2.512,3.746,3.975,4.065,4,11a35.383,35.383,0,0,1-3,3c-6.014,4.517-37.108,2-48,2H191c-2.662,6.807-7.081,13.532-13,17C161.507,387.662,139,376.015,137,361Zm24-21c-6.045,4.634-9.959,4.994-10,16,2.765,2.85,5.315,6.131,8,9,12.339,0.5,17.333-3.93,17-16-2.665-2.867-2.716-5.487-7-7C166.931,340.336,164.845,340.09,161,340Zm235-41-3,83"/>
</svg>
